<?xml version="1.0" encoding="UTF-8"?><svg id="Layer_1" xmlns="http://www.w3.org/2000/svg" viewBox="0 0 490.91 497.37"><defs><style>.cls-1{stroke:#fff;stroke-miterlimit:10;}</style></defs><path class="cls-1" d="m237.34,19.34h15c1.41.28,2.8.67,4.22.82,8.6.93,17.29,1.34,25.8,2.76,50.57,8.47,93.82,31.13,129.27,68.19,36.2,37.84,57.11,82.97,62.86,135.07.63,5.72,1.23,11.44,1.85,17.16v15c-.28,1.41-.67,2.8-.82,4.22-.93,8.6-1.34,17.28-2.76,25.8-8.47,50.57-31.13,93.82-68.18,129.27-37.84,36.21-82.97,57.11-135.07,62.86-5.72.63-11.44,1.23-17.17,1.85h-15c-1.41-.28-2.8-.67-4.22-.82-8.6-.93-17.28-1.34-25.8-2.76-50.57-8.47-93.82-31.13-129.27-68.18-36.21-37.84-57.11-82.97-62.86-135.07-.63-5.72-1.23-11.44-1.85-17.16v-15c.28-1.41.67-2.8.82-4.22.93-8.6,1.34-17.28,2.76-25.8,8.47-50.57,31.13-93.82,68.18-129.27,37.84-36.21,82.97-57.11,135.07-62.86,5.73-.64,11.45-1.24,17.17-1.86h0Zm1.13,450.38c.17-1.71.34-2.67.35-3.64.01-38.82-.17-77.64.08-116.46.15-24.14-10.12-42.64-29.3-56.52-15.99-11.57-33.7-14.3-52.1-7.33-23.93,9.07-39.49,28.77-38.39,56.44.65,16.4-.16,32.98-1.91,49.3-1.11,10.39-5.16,20.47-8.03,31.24,37.46,29.25,80.44,45.22,129.3,46.97h0Zm12.88-146.41c.24,10.45,2.93,19.43,9.34,26.94,15.69,18.38,35.64,28.01,59.91,28.06,22.09.05,41.45,7.2,58.09,21.67,4.61,4.01,8.93,8.35,13.37,12.54,40.23-31.43,74.65-106.67,71.2-155.9h-115.56c11.86,7.45,21.62,15.73,26.92,28.19,5.23,12.31,5.41,25.14,4.47,38.5h-127.74Zm-.5-292.21c0,7.94.13,14.39-.05,20.83-.09,3.13.91,4.16,4.15,4.6,37.84,5.06,63.22,27.54,81.58,59.33,2.86,4.94,4.74,10.75,5.76,16.39,1.87,10.29,2.67,20.78,4.07,31.16,2.72,20.1,12.52,36.06,30.33,45.61,20.36,10.92,55.46,9.02,74.32-15.57,2.68-3.49,3.67-6.42,2.09-10.81-28.1-77.79-82.2-126.67-162.64-145.9-12.65-3.02-25.85-3.74-39.61-5.64h0Zm-40.29,214c-.19-.65-.18-1.04-.37-1.22-13.26-13.02-18.28-29.28-19.09-47.37-.23-5.25-.68-10.8-2.56-15.61-13.85-35.56-51.89-45-82.59-33.18-10.87,4.19-18.24,12.41-25.37,21.13-11.94,14.59-26.94,24.53-45.52,28.76-1.3.3-3.05,1.74-3.33,2.95-3.39,14.56-5.7,29.28-5.57,44.55,61.58-.01,122.81-.01,184.4-.01h0Zm124.5-.03c-.74-31.13-1.41-61.88-2.23-92.63-.34-12.81-2.45-25.35-9.83-36.12-4.87-7.1-10.74-13.52-16.33-20.1-12.25-14.39-28.19-22.49-46.33-26.65-2.96-.68-6.03-.91-9.23-1.37v176.87h83.95Zm-309.27,11.44c2.76,62.63,26.9,114.62,72.72,157.34,5.86-13.47,8.62-26.68,8.72-40.22.29-38.29.1-76.59.07-114.89,0-.76-.32-1.52-.49-2.24H25.79h0Zm225.43,102.88v110.33c49.43-1.77,92.91-18.08,131.29-48.56-18.36-22.29-39.76-30.97-62.09-30.82-23.8.15-44.11-8.59-61.69-24.26-2.45-2.18-4.9-4.36-7.51-6.69h0Zm-101.43-226.56c-.41-.28-.16-.01.13.08,34.48,10.05,51.25,31.33,53.52,67.42.8,12.61,4.98,24.01,13.76,33.48,5.75,6.2,13.04,7.89,21.3,8.19V67.92c-3.12.32-5.91.39-8.62.9-26.4,4.97-45.57,20.68-61.49,41.34-5.93,7.72-12.34,15.07-18.6,22.67h0Zm-79.55-14.52c10.08,8.32,16.79,11.39,30.55,12.63,23,2.07,41.92-4.62,55.76-24.61,19.14-27.63,44.18-46.86,79.01-50.36,1.14-.11,3.04-1.46,3.07-2.29.25-7.08.14-14.17.14-21.92-69.7,3.55-125.22,32.53-168.53,86.55h0Zm297.18,192.78c-.01-11.61-2.22-22.16-9.8-30.92-23.06-26.62-66.44-27.85-90.71-2.46-8.81,9.22-14.31,20.18-15.75,33.38h116.26Zm92.06-106.76c-.48-.17-.95-.34-1.43-.51-15.12,17.29-34.68,23.72-56.72,23.27-22.64-.46-41.1-9.51-54.71-30.06v47.97h117.75c-1.67-13.84-3.28-27.26-4.89-40.67h0Zm-221.07,100.2v-47.91h-118.83v41.7c31.14-37.45,86.05-39.33,118.83,6.21h0ZM37.18,184.91c3.73-1.67,7.46-3.35,11.2-5.02,18.08-8.07,26.47-26.59,40.67-37.16-8.63-4.37-17.29-8.75-26.36-13.34-11.27,16.6-20.07,34.89-25.51,55.52Zm234.99,71.79h-20.81v19.23c7.02-6.49,13.97-12.91,20.81-19.23Z"/></svg>