<?xml version="1.0" encoding="UTF-8"?><svg id="Layer_43" xmlns="http://www.w3.org/2000/svg" viewBox="0 0 1346.78 565.57"><defs><style>.cls-1{fill:#e8a73f;}.cls-2{fill:#bd662b;}.cls-3{fill:#6e655a;stroke:#332f2a;stroke-miterlimit:10;}</style></defs><path class="cls-1" d="m1347.99,3.61c-191.19,121.91-344.73,144.6-449,143.12-168.44-2.39-237.97-68.29-394.8-32.68-125.88,28.58-215.26,101.49-271.89,147.68-80.75,65.86-130.97,132.64-160.74,179.22,425.94-58.77,851.88-117.53,1277.82-176.3-.46-87.01-.92-174.02-1.39-261.03Z"/><path class="cls-2" d="m1351.63,47.28c-94.64,57.6-239.25,127.26-425.09,144.63-200.61,18.74-301.68-72.36-470.19-15.93-22.01,7.37-90.8,52.23-227.48,141.66C26.82,449.83-2.07,475.66,4.87,498.29c3.15,10.26,23.75,52.69,265.05,51.62,118.03,1.25,236.06,2.51,354.1,3.76,103.13,2.57,206.26,5.14,309.39,7.71,76.82-1.22,153.63-2.43,230.45-3.65,63.52.06,127.04.11,190.55.17-1.46-98.08-2.39-196.14-2.78-294.2-.29-72.13-.29-144.26,0-216.41Z"/><path class="cls-3" d="m656.76,273.95l-1.01-104.14s6.26-19.4,9.14-26.83c3.11-8,14.82-34.86,14.82-34.86l.88-45.19-1.98-3.02.41-11.84s3.24-3.95,4.82-4.92,7.74-2.74,7.74-2.74l11.49-.16s5.37,1.34,6.99,2.18,5.51,4.25,5.51,4.25l.13,13.48-1.21,3.06.07,45.21s9.94,22.99,13.03,30.79c2.53,6.38,9.5,25.92,9.5,25.92l.52,108.99s-.43,19.1-39.24,19.1-41.6-19.31-41.6-19.31Z"/><path class="cls-3" d="m590.55,311.59l-1.01-104.14s6.26-19.4,9.14-26.83c3.11-8,14.82-34.86,14.82-34.86l.88-45.19-1.98-3.02.41-11.84s3.24-3.95,4.82-4.92,7.74-2.74,7.74-2.74l11.49-.16s5.37,1.34,6.99,2.18,5.51,4.25,5.51,4.25l.13,13.48-1.21,3.06.07,45.21s9.94,22.99,13.03,30.79c2.53,6.38,9.5,25.92,9.5,25.92l.52,108.99s-.43,19.1-39.24,19.1-41.6-19.31-41.6-19.31Z"/><path class="cls-3" d="m563.49,348.43l-1.01-104.14s6.26-19.4,9.14-26.83c3.11-8,14.82-34.86,14.82-34.86l.88-45.19-1.98-3.02.41-11.84s3.24-3.95,4.82-4.92,7.74-2.74,7.74-2.74l11.49-.16s5.37,1.34,6.99,2.18,5.51,4.25,5.51,4.25l.13,13.48-1.21,3.06.07,45.21s9.94,22.99,13.03,30.79c2.53,6.38,9.5,25.92,9.5,25.92l.52,108.99s-.43,19.1-39.24,19.1-41.6-19.31-41.6-19.31Z"/><path class="cls-3" d="m907.72,237.93l-1.01-104.14s6.26-19.4,9.14-26.83c3.11-8,14.82-34.86,14.82-34.86l.88-45.19-1.98-3.02.41-11.84s3.24-3.95,4.82-4.92,7.74-2.74,7.74-2.74l11.49-.16s5.37,1.34,6.99,2.18,5.51,4.25,5.51,4.25l.13,13.48-1.21,3.06.07,45.21s9.94,22.99,13.03,30.79c2.53,6.38,9.5,25.92,9.5,25.92l.52,108.99s-.43,19.1-39.24,19.1-41.6-19.31-41.6-19.31Z"/><path class="cls-3" d="m1062.4,293.12l-87.11,74.24s-20.79,10.01-29.09,13.55c-8.94,3.81-39.88,15.86-39.88,15.86l-38.73,31.43-1.15,3.31-10.27,8.13s-5.62.87-7.56.62c-1.99-.26-7.79-2.65-7.79-2.65l-8.26-6.7s-2.67-4.14-3.1-5.69-.31-6.27-.31-6.27l11.28-9.61,3.44-1.45,38.08-32.01s12.36-22.15,16.76-29.5c3.59-6.01,15.14-23.96,15.14-23.96l91.56-77.38s16.41-13.25,43.86,9.76c27.45,23.02,13.13,38.32,13.13,38.32Z"/></svg>