<?xml version="1.0" encoding="UTF-8"?><svg xmlns="http://www.w3.org/2000/svg" viewBox="0 0 923.6 955.73"><defs><style>.cls-1{fill:#e8a73f;}.cls-2{fill:#bd662b;}</style></defs><g id="Layer_44"><path class="cls-1" d="m78.32,632.89s79.3-111.82,110.6-146.18c19.53-21.44,67.22-61.81,97.74-69.82,27.78-7.29,115.74,9.82,115.74,9.82l101.46,30.68,68.29-88.5,12.38-163.68s127.66.19,161.07-19.22c21.32-12.39,62.35-43.72,80.89-60.73,20.27-18.6,44.69-46.35,60.73-62.93,7.78-8.04,35.27-38.64,35.27-38.64l.2,127.39-26.47,293.09-227.63,105.82-387.1,65.45-203.19,17.45Z"/></g><g id="Layer_43"><path class="cls-2" d="m922.5,54.52s-108.07,135.72-178.9,154.29c-43.08,11.3-155.92-20.78-203.01-4.93s-97.77,91.5-123.14,126.25c-23.69,32.45-55.72,113.23-97.49,128.39-58.68,21.3-126.1,39.73-161.62,62.06-37.72,23.71-142.39,118.22-124.92,118.22,31.84,0,889.07-10.2,889.07-10.2v-267.75s0-321.52,0-306.33Z"/><path class="cls-2" d="m923.6,886.88c-73.17-41.86-132.41-49.79-172.73-49.41-71.07.67-88.95,27.19-148.24,15.72-65.37-12.65-65.55-49.12-145.99-74.12-50.23-15.61-52.46-2.1-135.57-16.69-86.13-15.13-146.3-40.04-161.62-47.39-111-53.28-127.45-61.79-127.21-74.17,0,0,.14-7.46,6.19-14.98,32.21-40.03,597.85-21.88,884.97-10.47,0,2.36.05,49.29.09,98.57.07,86.47.11,165.69.11,172.94Z"/></g></svg>