<?xml version="1.0" encoding="UTF-8"?><svg xmlns="http://www.w3.org/2000/svg" viewBox="0 0 922.04 855.28"><defs><style>.cls-1{fill:#bd662b;}.cls-2{fill:#c84975;}</style></defs><g id="Layer_44"><path class="cls-2" d="m.3,77.74s122.09,28.44,162.16,42.8c41.32,14.81,108,61.91,129.64,93.33,17.81,25.87,75.58,132.32,75.58,132.32L.3,339.92V77.74Z"/><path class="cls-2" d="m199.31,372.54s91.19-112.13,136.36-135.48c32.42-16.76,105-32.16,148.48-30.11,35.21,1.66,105.14,17.95,132.79,36.08,29,19.02,64.9,56.31,82,85.35,12.76,21.66,36.52,84.47,48.36,109.79,15.33,32.8,81.33,115.26,81.33,115.26l-161.15,9.78-330.3-41.4-137.88-149.28Z"/></g><g id="Layer_43"><path class="cls-1" d="m0,128.26s131.81,75.01,183.69,88.09c57.22,14.43,181.07,9.71,241.19,14.75,53.45,4.49,126.43,27.03,169.61,50.59,36.77,20.06,82.21,85.43,108.52,112.96,32.16,33.65,190.32,116.77,176.1,118.04-38.26,0-879.1-1.1-879.1-1.1V128.26Z"/><path class="cls-1" d="m.3,771.59c59.26-31.86,115.61-46.56,168.26-49.72,97.72-5.86,132.45,31.07,206.41,7.53,65.46-20.83,56.08-55.42,135.6-91.91,71.33-32.72,99.61-14.4,192.26-39.15,76.73-20.5,177.17-65.68,177.17-89.34,0-4.91-879.7-8.54-879.7-8.54v271.12Z"/></g></svg>