<?xml version="1.0" encoding="UTF-8"?><svg id="Layer_43" xmlns="http://www.w3.org/2000/svg" viewBox="0 0 1041.6 495.92"><defs><style>.cls-1{fill:#bd662b;}.cls-2{fill:#c84975;}.cls-3{fill:#6e655a;}.cls-3,.cls-4{stroke:#332f2a;stroke-miterlimit:10;}.cls-4{fill:none;}</style></defs><path class="cls-2" d="m978.58,410.55s-106.54-81.23-147.88-105.39c-35.44-20.71-105.52-56.37-151.37-68.83-28.58-7.77-127.55-21.65-127.55-21.65l-76.06-66.61s-85.32-55.96-114.24-79.04c-21.29-17-95.34-49.55-130.91-54.7-44.87-6.49-92.81-3.18-129.42,7.76C73.02,30.49-2.87,30.76-2.87,30.76v130.44l341.25,113.09,243.35,63.87,260.2,69.19,136.65,3.19Z"/><path class="cls-1" d="m-.71,55.92c38.3,29.88,98.25,66.36,176.57,71.43,104.33,6.75,161.18-47.4,233.91-23.38,50.87,16.8,34.28,46.99,105.53,100,48.14,35.81,96.46,52.34,185.3,82.73,89.73,30.69,108.38,27.48,188.7,57.98,61.99,23.54,148.12,56.25,141.32,78.76-7.26,24.03-117.82,27.67-175.27,25.76-66.73-2.21-85.59-12.69-147.6-13.55-62.75-.87-113.73,8.89-145.93,16.83-74.35,14.67-169.92,28.43-282,32.28-111.1,3.81-207.24-3.19-282.7-12.57v-143.56c.73-41.12,1.47-82.24,2.2-123.36-.01-49.79-.02-99.57-.03-149.36Z"/><path class="cls-3" d="m382.67,254.39L242.43,60.28l-5.83-3.94-132.78,237.08s108.34-14.46,144.42-19.5c33.64-4.71,134.44-19.52,134.44-19.52Z"/><path class="cls-3" d="m174.32,37.01l62.28,19.34-133.74,236.71-33.02-59.61s3.72-9.98,10.96-23.44c13.58-25.28,36.08-64.13,45.2-81.23,7.8-14.62,20.06-40.5,30.64-60.64,9.42-17.94,17.68-31.12,17.68-31.12Z"/><path class="cls-4" d="m241.35,59.7s4.42,79.59,5.46,106.18c1.02,25.88,2.81,103.72,2.81,103.72"/><polyline class="cls-4" points="237.79 57.88 239.27 96.93 243.71 273.62"/><path class="cls-3" d="m599.99,302.57l-117.18-168.69-4.94-3.48-118.04,201.05s93.29-10.62,124.37-14.36c28.97-3.48,115.8-14.53,115.8-14.53Z"/><path class="cls-3" d="m424.69,112.83l53.17,17.6-118.86,200.72-27.36-51.64s3.36-8.49,9.8-19.92c12.09-21.45,32.07-54.38,40.19-68.89,6.94-12.41,17.91-34.38,27.34-51.48,8.39-15.22,15.71-26.38,15.71-26.38Z"/><path class="cls-4" d="m481.89,133.37s2.45,68.3,2.9,91.11c.44,22.2.67,88.96.67,88.96"/><polyline class="cls-4" points="478.86 131.75 479.48 165.25 480.31 316.78"/></svg>