<?xml version="1.0" encoding="UTF-8"?><svg xmlns="http://www.w3.org/2000/svg" viewBox="0 0 1264.89 707.66"><defs><style>.cls-1{fill:#eb9d6a;}.cls-2{fill:#bd662b;}.cls-3{fill:#6e655a;stroke:#332f2a;stroke-miterlimit:10;}</style></defs><g id="Layer_5"><path class="cls-1" d="m1164.82,588.7s-133.66-152.49-187.12-195.02c-55.63-44.25-150.72-113.24-223.16-124.72-45.96-7.29-222.58,23.58-222.58,23.58-16.96-15.8-33.91-31.6-50.87-47.4-92.79,4.8-159.54-16.08-197.06-31.5-39.95-16.42-61.08-35.13-160.58-110.92C65.4,58.49,18.65,23.38-9.3,2.45c-1.17,51.8-2.34,103.59-3.51,155.39,70.01,83.9,140.02,167.81,210.03,251.71l369.31,108.85,312.68,72.56,285.6-2.27Z"/><path class="cls-2" d="m-12.81,33.2s195.85,193.47,288.63,220.26c66.72,19.26,215.55-21.61,285.7-7.18,78.71,16.19,211.11,122.59,282.18,162.06,74.17,41.19,103.5,38.17,262.42,108.04,137.73,60.56,161.32,78.03,158.57,90.77-2.86,13.21-33.57,19.17-206.45,29.05-201.16,11.49-192.58,5.3-252.33,13.2-154.1,20.38-160.68,54.88-275.27,55.46-65.79.33-42.7-11.15-215.06-29.05-43.22-4.49-121.89-11.79-220.79-15.85-38.01-1.56-70.31-2.28-94.62-2.64C-4.16,449.28-8.49,241.24-12.81,33.2Z"/></g><g id="Layer_30"><g id="Layer_33"><path class="cls-3" d="m701.1,124.04c-.05-.7.54-2.13,1.36-3.51,1.7-2.9.88-8.12,0-11.31-.95-3.47-2.71-7.46-4.19-6.83-1.34.57-.15,5.78-.15,5.78,0,0-1.78-9.5-3.88-9.21-.54.07-.78,9.81-.78,9.81,0,0-1.52-11.9-3.11-11.32-1.28.47-1.09,11.3-1.09,11.3,0,0-1.39-10-3.1-8.98-.7.42-.56,9.71-.56,9.71,0,0-5.85-2.78-6.63-2.01-2.07,2.02,10.2,19.99,10.2,19.99,0,0,5.73,36.59,5.32,48.91-.33,9.78-6.5,38.44-6.5,38.44,0,0-6.43,8.41-9.53,10.2-2.86,1.65-13.05,3.19-13.05,3.19,0,0-.95-3.62-.84-4.84.48-5.36,8.23-7.31,7.39-20.39-.95-14.78-5.19-21.81-11.51-23.1-2.57-.53-12.47-.68-14.6,1.45-5.6,5.62-9.21,8.84-10.15,13.6-1.07,5.39-1.09,14.65.26,18.93.74,2.37,5.62,11.06,5.62,11.06l.48,8.46s-12.94-1.14-16.26,1.02c-3.03,1.97-5.3,9.14-5.87,12.5-.63,3.76-.81,11.42-.32,15.2.49,3.75,4.17,14.61,4.17,14.61v59.91l.71,8.14-2.13,36.79,1.89,31.81,3.07,23.03s4.4,8.33,14.65,8.33c12.48,0,19.24-6.5,19.24-6.5l.86-65.87,3.54-.06-.6,144.91-.25,10.45,5.67,16.52s3.22,10.52,13.57,11.35c3.56.28,5.25-5.1,5.26-7.28.02-2.94-2.48-11.53-2.48-11.53l-2.39-10.89-.24-1.1,4.45.42-.05-90,6.84-35.03s5.92-17.85,7.34-23.93c1.59-6.78,3.39-20.75,2.53-27.64-.78-6.32-8.47-24.21-8.47-24.21l-1-15.35.68-33.39.08-31.99,7.71-11.82,5.57-12.79.07-37.43s-.47-18.63-1.22-25.04c-.64-5.51-3.17-19.35-3.9-22.41-.24-1-1.72-5.74-2.32-6.74-.67-1.11-1.26-2.05-1.35-3.32Z"/><path class="cls-3" d="m661.29,576.93l-.44-6.04-24.12-28.31-5.31-3.38-1.12-1.72,4.25-5.04-1.18-38.7-4.39-17.04-2.19-36.76-5.07-78.08-8.11-25.84.32-67.79,3.04-14.71,7.5-17.94,8.95-11.42,3.51-7.08,16.22-44.47,8.94-20.59,10.11-30.8,3.72-20.15,5.59-8.28s10.12-6.15,7.78-7.65-10.75,2.93-10.75,2.93c0,0,4.06-10.48,1.1-11.33-2.19-.63-4.13,7.68-4.13,7.68,0,0,2.44-11.7-.21-12.78-2.14-.88-4.59,12.08-4.59,12.08,0,0,1.23-10.16-.46-10.9-1.94-.86-3.3,10.39-3.3,10.39,0,0-.42-6.67-1.83-7.39s-2.67,7.73-2.67,7.73l.29,12.69-.99,10.13-2.15,10.37-19.3,37.52-12.92,22.27s-6.8,16.1-11,20.93c-4.95,5.7-24.91,18.23-24.91,18.23l-1.56-11.95s12.43-10.92,14.31-15.75c2.11-5.43,3.16-18.21-.26-23.04-3.06-4.32-11.02-10.98-16.01-12.49-3.35-1.02-11.26-1.21-14.51.28-4.33,1.99-13.45,7.84-15.09,12.02-2.24,5.72-2.84,17.16-2,23.19.51,3.69,5.68,14.77,5.68,14.77l-2.04,10.56-21.86-19.02s-6.58-24.68-6.76-33.1c-.25-11.73,9.09-54.63,9.09-54.63l19.78-16.55s7.12-4.24,6.74-4.73c-1.12-1.42-10.68.94-10.68.94,0,0,9.67-10.09,8.75-12.03-.46-.98-10.71,7.51-10.71,7.51,0,0,10.88-11.63,8.9-13.26-2.39-1.97-13.43,10.63-13.43,10.63,0,0,7.31-10.35,5.36-11.31-1.16-.57-9.72,9.42-9.72,9.42,0,0,2.24-7.08.25-7.45s-5.93,7.71-5.93,7.71l-5.33,14.95-2.6,11.04s-11.12,23.05-12.86,28.24c-3.32,9.96-6.95,41.48-6.95,41.48,0,0-1.56,30.46.42,40.4,2.14,10.74,16.4,40.99,16.4,40.99l.03,194.42-.99,97.61,2.98,17.94v21.28s6.48,11.5,10.47,13.38c2.61,1.23,9.27,1.47,11.72,0,3.02-1.82,7.62-11.25,7.62-11.25l-.33-19.76.82-37.94.14-38.39s3.88-11.87,4.41-15.96c.95-7.33-.4-29.52-.4-29.52,0,0,2.06-44.63,2.43-51.42.1-1.73,4.33-6.74,6.19-6.39,3.35.62,8.38,9.92,8.38,9.92l5.2,30.44s3.47,23.48,5.08,31.65c2.15,10.91,11.15,44.06,11.15,44.06v33.14l-2.98,10.03,8.61,10.34,42.74,18.85"/><path class="cls-3" d="m532.77,541.28l-22.86-30.28-20.65-46.02-11.43-34.68-9.03-33.16-13.55-31.13s-13.48-22.1-16.78-20.81c-5.41,2.12-20.65,37.05-20.65,37.05l-24.52,50.25-5.71,6.68-17.29-46.71,9.09-34.87,8.2-31.14,14.54-46.51,1.24-55.9-8.3-46.22s-11.6-30.36-12.02-35.5c-.66-7.98-3.17-23.88-4.54-31.74-.89-5.08-3.13-14.1-4.96-18.78-1.66-4.25-7.18-17.61-7.18-17.61l-15.76-32.41s-15.42-14.28-14.72-16.76c.61-2.17,9.05,4.05,9.05,4.05,0,0-14.94-15.91-13.48-18.18,2.07-3.22,12,9.24,12,9.24,0,0-12.65-14.87-10.37-16.84,2.46-2.12,14.86,14.99,14.86,14.99,0,0-7.87-12.28-5.73-14.25s12.14,12.76,12.14,12.76c0,0,6.6-10.22,7.97-9.09,1.22,1.01-1.88,11.72-1.88,11.72l1.15,7.62.66,9.06,12.42,23.98s11.21,18.29,14.1,24.74c4.63,10.37,14.27,42.87,14.27,42.87,0,0,20.51,26.67,21.35,26.36,1.21-.44.64-1.58.73-6.81.01-.59-9.92-8.21-10.39-11.62-.25-1.85-2.54-6.92-1.97-10.84.57-3.92,3.98-10.05,5.38-11.8,2.83-3.53,13.36-6.44,18.02-6.52,3.57-.06,11.12,2.58,14.07,4.53,3.12,2.05,6.03,10.45,6.9,13.88.74,2.94-.45,10.14-1.04,12.01-1.23,3.87-10.03,11.25-10.03,11.25,0,0-1.46,5.8.11,6.64,3.48,1.86,15.7-17.11,15.7-17.11l6.86-17.56,8.55-31.56,10.22-31.07,9.68-24.56s-9.18-9.77-8.34-11.08c1.28-1.99,9.57,4.39,9.57,4.39,0,0-.43-13.22,1.46-13.73,2.04-.54,2.78,11.71,2.78,11.71,0,0,.37-16.16,2.65-16.16,3.08,0,2.92,16,2.92,16,0,0,1.16-13.46,2.81-13.29,2.58.27,1.91,14.27,1.91,14.27,0,0,5-5.3,5.83-5.15,1.6.29-9.31,17.2-9.31,17.2l-5.44,21.41-5.36,17.9-8.1,38.56-3.25,26.56-5.74,33.26.6,61-.63,61.5s3.78,41.68,5.4,41.18,12.42,25.85,14.98,34.94c2.44,8.66,4.26,26.58,6.7,35.24,4.12,14.68,23.18,56.8,23.18,56.8l.98,75.8Z"/><path class="cls-3" d="m380.09,590.49s3.27-5.44,2.91-7.38c-1.07-5.75-16.08-18.05-16.08-18.05l-3.25-19.15,17.54-25.71,12.26-23.62s4.84-6.7,4.84-13.95c0-8.16.38-25.46.38-25.46l-9.02-27.84-18.05-52.52.26-41.33v-38.62l7.77-44.71,9.68-39.57,10.5-36.08,22.79-64.66.96-11.4-.3-8.43s6.78-11.21,5.69-12.43c-1.47-1.64-7.56,4.91-7.56,4.91,0,0,2.81-13.79-.79-12.96-2.38.54-4.74,12.6-4.74,12.6,0,0,1.4-19.2-2.47-18.86-3.95.35-2.64,18.28-2.64,18.28,0,0-1.96-12.73-4.77-12.48s.35,13.32.35,13.32c0,0-7.27-3.39-8.94-1.71-2.29,2.29,8.13,8.09,8.13,8.09l2.44,8.04-1.28,13.33-9.88,26.48-13.17,25.39-7.45,24.38-10.67,21.9-8.66,26.1-5.66,16.4-12.87,8.79-1.08-9.26s3.8-3.03,7.06-7.06c2.44-3.03,4.44-6.16,5.06-8.52.72-2.77.53-8.57.2-11.4-.46-3.84-1.72-11.72-3.89-15.04-2.65-4.05-10.13-11.23-14.87-13.06-3.48-1.34-11.64-1.26-15.1.11-4.39,1.74-11.29,8.67-13.23,12.68-1.57,3.23-3.7,10.7-3.87,14.24-.15,3.24.6,9.42,1.4,12.58.56,2.23,2.87,6.51,4.24,8.3,1.5,1.95,6.87,7.02,6.87,7.02l1.67,8.45-20.44-28.33-8.9-21.94-3.3-16.06-4.46-18.73-8.45-20.04-7.49-17.56-5.59-16.69s8.53-6.21,7.38-7.43c-.68-.72-9.05,3.95-9.05,3.95,0,0,3.1-13.9.67-13.9-1.98,0-3.89,10.41-3.89,10.41,0,0,.87-17.39-1.74-17.09s-1.89,16.15-1.89,16.15c0,0-1.6-12.38-4.11-12.09,0,0,0,0,0,0-1.54.4-.66,12.79-.66,12.79,0,0-2.97-7.1-4.49-6.89-1.76.25.69,9.14.69,9.14l4.1,7.49,5.28,10.66,8.19,28.86,8.67,27.3,1.85,24.13v18.76s2.67,26,5.55,33.28c2.3,5.81,14.15,26.38,14.15,26.38,0,0,3.93,15.48,3.73,21.12-.21,6.15-5.92,24.11-5.92,24.11l-3.78,47.28s-.13,16.39,1,20.96c4.5,18.24,33.64,65.58,33.64,65.58,0,0,.09,14.27-1.17,18.84-1.65,5.98-8.43,16.52-10.96,22.53-2.76,6.53-8.61,26.86-8.61,26.86l-1.24,32.67.5,25.72s3.86,7.59,6.49,9.82c3.31,2.8,15.42,7.39,17.4,7.6,1.56.17,4.88-5.25,4.97-6.19.18-1.77-4.95-10.61-4.95-10.61l-.18-13.73,1.14-10.41,2.1-11.36.66-2.43,4.59-16.47,15.25-38.25,8.33-14.24,1.52-12.43-14.44-34.31-11.32-27.29s-3.75-10.53-.94-12.15c2.38-1.37,8.74,8.08,8.74,8.08l8.3,16.82,8.63,20.13,7.27,16.1s2.78,10.22,3.3,13.7c.72,4.8.88,14.63-.19,19.37-1.25,5.52-9.59,20.78-9.59,20.78l-6.52,15.5s-6.81,9.18-6.52,12.68c.66,8.13,19.76,27.12,19.76,27.12l9.21,9.86,10.17,4.58,4.91-.62Z"/></g></g></svg>