<?xml version="1.0" encoding="UTF-8"?><svg id="Layer_5" xmlns="http://www.w3.org/2000/svg" viewBox="0 0 555.69 347.97"><defs><style>.cls-1{fill:#e59ded;}.cls-2{fill:#bd662b;}</style></defs><path class="cls-1" d="m85.67,259.41l46.11-45.95s41.09-26.67,55.85-33.86c15.69-7.63,48.56-20.32,65.6-24.79,17.68-4.64,56.63-7.33,74.96-8.55,12.15-.81,45.84-3.55,45.84-3.55l74.04-32.65s24.64-13.08,31.82-18.74c9.48-7.47,23.72-20.34,31.84-29.09,6.76-7.29,21.67-23.93,29.21-33.78,4.8-6.27,13.88-22.37,13.88-22.37v62.86s-6.08,82.24-6.08,82.24l-9.09,57.44-161.07,22.97-118.85,24.79-101.97,3.63-72.09-.6Z"/><path class="cls-2" d="m79.67,260.26c28.99-23.86,32.1-34.75,51.5-39.02,16.44-3.63,50.44,9.12,67.08,7.63,16.28-1.46,37.05-12.4,48.19-18.74,14.68-8.35,43.45-25.96,57.56-35.12,11.53-7.49,33.89-23.39,45.03-31.36,9.46-6.77,28.23-20.75,38.83-25.85,10.23-4.92,28.11-13.55,43.69-13.55,16.39,0,38.77,13.34,51.63,10.38,22.09-5.09,72.52-67.81,72.52-67.81v281.67c-8.7-2.7-22.16-6.06-38.77-6.69-36.69-1.38-59.49,11.7-79.82,17.83-49.39,14.89-66.18-16.65-141.28-23.03-68.86-5.85-73.92,19.04-165.22,20.06-55.5.62-123.87-7.79-126.11-24.52-1.52-11.35,29.09-13.95,75.17-51.87Z"/></svg>