<?xml version="1.0" encoding="UTF-8"?><svg id="Layer_20" xmlns="http://www.w3.org/2000/svg" viewBox="0 0 168.22 116.73"><defs><style>.cls-1{fill:#332f2a;}.cls-2{fill:#6e655a;}.cls-2,.cls-3{stroke:#332f2a;stroke-miterlimit:10;}.cls-3{fill:none;}</style></defs><path class="cls-2" d="m24.24,91.72l2.76,6.52s40.18,4.53,53.54,6.3c14.65,1.94,59.4,9.53,59.4,9.53,0,0,3.77-5.76,5.64-7.06,1.66-1.16,7.74-2.6,7.74-2.6l1.1-5.01s-2.95-2.41-2.82-3.52c.14-1.19,3.81-3.03,3.81-3.03l.53-4.58s-3.02-2.49-2.77-3.67c.27-1.26,4.19-2.73,4.19-2.73l.42-5.23s-3.2-1.96-3.21-3.01c-.01-1.27,3.92-2.41,3.92-2.41l.11-4.89L24.24,91.72Z"/><g id="Layer_22"><path class="cls-3" d="m52.51,92.27s59.94,5.9,80.03,8.4c1.8.22,4.41-.59,6.49-3.12s2.23-6.08,2.23-6.08l1.13-15.07"/><path class="cls-3" d="m139.04,77l-1.04,12.06s-1.06,4.29-2.06,5.33-3.99,2.57-5.49,2.45c-15.89-1.3-62.98-7.24-62.98-7.24"/></g><g id="Layer_21"><path class="cls-2" d="m30.43,97.49s-5.09-5.44-7.29-6.58-10-2.24-10-2.24l-.9-5.95s4.57-.12,4.36-4.07c-.18-3.5-6.11-2.57-6.11-2.57l-.79-4.82s4.52-.59,4.01-3.88c-.5-3.28-5.5-2.6-5.5-2.6l-.55-3.99s4.22-.44,4.22-2.99c0-3.36-5.77-3.25-5.77-3.25l-.42-3.58s4.39-2.46,4.19-3.85c-.42-2.83-5.27-2.73-5.27-2.73l-.59-4.56s7.34-2.76,9.04-4.6c1.43-1.55,3.12-7.75,3.12-7.75l29.27-6.98,45.49-9.33,28.27-6.03,20.99-2.93s3.48,6.4,5.38,7.86c2.11,1.61,10.07,3.59,10.07,3.59l1.25,5.37s-3.41.65-3.18,3.07c.16,1.71,3.5,1.81,3.5,1.81l1.07,4.92s-3.69.28-3.35,3.14,4.9,1.88,4.9,1.88l1.09,4.96s-3.78.65-3.5,3.29c.3,2.73,4.42,2.9,4.42,2.9l.81,4.76s-3.18,1.55-2.58,4.26,4.22,2.67,4.22,2.67l.13,4.61s-3.6,2.03-6.73,5.4-3.54,7.9-3.54,7.9l-57.15,9.05-37.31,7.49-29.29,6.36Z"/><g id="Layer_23"><path class="cls-3" d="m27.68,76.42l-6.29-31.94c-1.12-5.7,2.71-11.2,8.56-12.29l98.21-18.33c5.85-1.09,11.5,2.64,12.62,8.34l6.29,31.94c1.12,5.7-2.71,11.2-8.56,12.29l-98.21,18.33c-5.85,1.09-11.5-2.64-12.62-8.34Z"/><path class="cls-3" d="m30.24,72.31l-4.79-24.35c-1.12-5.7,2.71-11.2,8.56-12.29l91.01-16.99c5.85-1.09,11.5,2.64,12.62,8.34l4.79,24.35c1.12,5.7-2.71,11.2-8.56,12.29l-91.01,16.99c-5.85,1.09-11.5-2.64-12.62-8.34Z"/><path class="cls-1" d="m47.24,49.14l-5.38,1.03-.41-1.73,13.06-2.49.41,1.73-5.4,1.03,3.38,14.26-2.28.44-3.38-14.26Z"/><path class="cls-1" d="m57.69,45.34l2.28-.44,3.79,15.99-2.28.44-3.79-15.99Z"/><path class="cls-1" d="m65.69,52.17c-1.22-5.15,1.41-8.93,5.94-9.8,2.17-.41,4.08.19,5.38,1.04l-.95,1.51c-1.16-.7-2.46-1.04-3.98-.75-3.34.64-4.99,3.52-4.04,7.5.95,4.02,3.67,6.13,7.03,5.49,1.71-.33,2.84-1.18,3.72-2.52l1.54.98c-1.09,1.76-2.63,2.92-4.91,3.36-4.46.85-8.5-1.59-9.73-6.81Z"/><path class="cls-1" d="m80.34,41.02l2.28-.44,1.89,8,.08-.02,5.47-9.4,2.61-.5-4.15,7.16,8.78,8.67-2.55.49-7.26-7.28-2.27,3.82,1.2,5.05-2.28.44-3.79-15.99Z"/><path class="cls-1" d="m96.07,38.02l10.27-1.96.41,1.73-7.99,1.52,1.18,5,6.74-1.28.41,1.73-6.74,1.28,1.37,5.8,8.26-1.57.41,1.73-10.54,2.01-3.79-15.99Z"/><path class="cls-1" d="m114.48,36.32l-5.38,1.03-.41-1.73,13.06-2.49.41,1.73-5.4,1.03,3.38,14.26-2.28.44-3.38-14.26Z"/></g></g></svg>