<?xml version="1.0" encoding="UTF-8"?><svg id="Layer_3" xmlns="http://www.w3.org/2000/svg" xmlns:xlink="http://www.w3.org/1999/xlink" viewBox="0 0 1920.25 433.21"><defs><style>.cls-1{fill:url(#linear-gradient);}.cls-2{fill:#22389a;}.cls-3{fill:#6e655a;}.cls-3,.cls-4{stroke:#332f2a;stroke-miterlimit:10;}.cls-4{fill:none;}</style><linearGradient id="linear-gradient" x1="960.76" y1="364.47" x2="960.76" y2="144.39" gradientUnits="userSpaceOnUse"><stop offset="0" stop-color="#3887d3"/><stop offset="1" stop-color="#449cd4"/></linearGradient></defs><g id="Layer_4"><path class="cls-2" d="m8.26,269.76s285.35-87.84,380.71-87.84c105.29,0,221.45,50.82,221.45,50.82l535.2,93.52,114.26-47.54s51.65-63.08,109.02-69.24c26.22-2.81,117,54.86,117,54.86l161.98-38.14s64.73,56.68,103.12,44.61c32.63-10.26,170.52-167.05,170.52-167.05l-.98,332.49L0,435.71l8.26-165.94Z"/></g><path class="cls-1" d="m0,183.35s228.71,42.07,325.83,65.65c49.15,11.94,141.17.69,189.69-14.53,25.72-8.07,134.23-63.18,176.66-73.3,38.42-9.16,116.34-29.05,155.33-24.59,50.74,5.81,146.87,52.42,193.43,77.28,41.76,22.3,128.46-12.25,174.18-12.25,66.14,0,105.11,46.34,150.22,44.22,35.45-1.67,90.33-18.11,122.49-31.77,25.33-10.76,51.88-32.68,107.73-32.68,21.61,0,47.4,24.8,62.05,43.74,40.04,51.78,50.94,47.83,77.82,53.23,61.08,12.26,186.11-119.47,186.11-119.47-.33,92.45-.65,184.9-.98,277.36-640.18-.18-1280.36-.36-1920.54-.54v-252.36Z"/><path class="cls-3" d="m1504.73,6.2l.43,17.44s10.83-1.6,14.46-1.83c4.24-.27,12.8-.01,16.95.88,1.4.3,4.15,1.29,5.35,2.09,1.65,1.1,4.13,4.43,5.84,5.43,2.74,1.59,9.1,2.77,12.24,3.07,4.56.43,18.29.6,18.29.6,0,0,.37-6.11.97-8.04.66-2.13,4.13-7.88,4.13-7.88l-13.89-1.74s-8.53-1.28-11.24-2.21c-.84-.29-2.52-.97-3.17-1.58s-1.49-2.4-2.05-3.16c-.8-1.09-2.59-3.19-3.75-3.86-1.24-.71-4.04-1.43-5.44-1.59-2.18-.26-6.58-.21-8.78-.17-2.44.04-7.32.34-9.75.54-5.15.43-20.58,2.02-20.58,2.02Z"/><path class="cls-3" d="m1504.38,23.49s-33.04,49.59-56.36,89.8c-13.49,23.28-28.73,48.25-39.08,69.18-12.16,24.6-18.35,46.82-18.35,46.82,0,0,19.4-3.28,56.38,3.59,40.03,7.44,57.78,20.2,57.78,20.2,0,0-6.79-38.63-8.11-64.76-1.49-29.56-2.07-59.45-.96-79.23,1.21-21.48,8.71-85.61,8.71-85.61Z"/><line class="cls-3" x1="1504.47" y1="5.83" x2="1504.73" y2="270.75"/><path class="cls-3" d="m1505.15,30.6s23.31,25.09,30.84,33.68c7.16,8.16,20.99,24.98,27.35,33.82,11.62,16.16,26.09,37.86,42.83,67.27,19.48,34.21,31.76,92.5,31.76,92.5,0,0-22.99-18.23-67.43-11.91-41.78,5.93-65.78,23.23-65.78,23.23,0,0,13.05-43.09,15.27-73.07,1.9-25.76.83-52.45-.24-69.89-.91-14.73-4.53-44.05-7.03-58.58-1.6-9.32-7.58-37.03-7.58-37.03Z"/><path class="cls-3" d="m1389.67,230.83l-3.36-2.68s-4.28,7.47,2.13,35.57c6.07,26.6,17.15,35.32,17.15,35.32,0,0,33.22,13.68,44.8,16.45,15.33,3.66,46.8,6.93,62.53,7.33,12.11.31,36.37-.27,48.45-1.3,10.37-.88,31.31-2.29,41.33-5.23,4.51-1.32,13.72-4.55,17.12-7.89,5.92-5.82,12.03-22.08,16.13-29.4,7.18-12.82,6.32-22.17,6.32-22.17,0,0-14.23,3.03-18.97,4.02-6.14,1.28-18.43,3.81-24.61,4.84-6.8,1.13-20.48,2.8-27.33,3.49-7.08.71-21.3,1.57-28.42,1.57s-21.41-1.18-28.55-1.57c-6.71-.37-21.15-1.15-26.84-1.72s-16.51-2.07-21.94-3.16c-6.5-1.31-19.27-5.03-25.58-7.1-5.14-1.69-15.2-5.79-20.17-7.96-2.88-1.26-8.51-4.08-11.31-5.52s-8.34-4.5-10.93-6.31c-2.11-1.47-7.92-6.59-7.92-6.59Z"/><path class="cls-4" d="m1384.22,243.14s38.03,35.35,129.44,40.29c81.63,4.41,127.96-16.48,127.96-16.48"/><path class="cls-4" d="m1388.23,263.59s45.37,29.19,123.42,34.37c81.57,5.41,121.94-14.64,121.94-14.64"/><path class="cls-4" d="m1395.6,283.32s41.75,23.49,114.05,28.47c73.93,5.09,115.92-12.91,115.92-12.91"/></svg>