<?xml version="1.0" encoding="UTF-8"?><svg id="Layer_3" xmlns="http://www.w3.org/2000/svg" xmlns:xlink="http://www.w3.org/1999/xlink" viewBox="0 0 1920.25 433.21"><defs><style>.cls-1{fill:url(#linear-gradient);}.cls-2{fill:#22389a;}</style><linearGradient id="linear-gradient" x1="960.76" y1="364.47" x2="960.76" y2="144.39" gradientUnits="userSpaceOnUse"><stop offset="0" stop-color="#3887d3"/><stop offset="1" stop-color="#449cd4"/></linearGradient></defs><g id="Layer_4"><path class="cls-2" d="m8.26,269.76s285.35-87.84,380.71-87.84c105.29,0,221.45,50.82,221.45,50.82l535.2,93.52,114.26-47.54s51.65-63.08,109.02-69.24c26.22-2.81,117,54.86,117,54.86l161.98-38.14s64.73,56.68,103.12,44.61c32.63-10.26,170.52-167.05,170.52-167.05l-.98,332.49L0,435.71l8.26-165.94Z"/></g><path class="cls-1" d="m0,183.35s228.71,42.07,325.83,65.65c49.15,11.94,141.17.69,189.69-14.53,25.72-8.07,134.23-63.18,176.66-73.3,38.42-9.16,116.34-29.05,155.33-24.59,50.74,5.81,146.87,52.42,193.43,77.28,41.76,22.3,128.46-12.25,174.18-12.25,66.14,0,105.11,46.34,150.22,44.22,35.45-1.67,90.33-18.11,122.49-31.77,25.33-10.76,51.88-32.68,107.73-32.68,21.61,0,47.4,24.8,62.05,43.74,40.04,51.78,50.94,47.83,77.82,53.23,61.08,12.26,186.11-119.47,186.11-119.47-.33,92.45-.65,184.9-.98,277.36-640.18-.18-1280.36-.36-1920.54-.54v-252.36Z"/></svg>