<?xml version="1.0" encoding="UTF-8"?><svg id="Layer_86" xmlns="http://www.w3.org/2000/svg" viewBox="0 0 492.28 132.78"><defs><style>.cls-1{fill:none;stroke:#fff;stroke-miterlimit:10;stroke-width:10px;}</style></defs><polygon class="cls-1" points="7.33 6.54 7.33 125.39 485.52 125.39 485.52 6.54 27.49 6.54 7.33 6.54"/><g id="Layer_87"><path class="cls-1" d="m30.94,6.54c-1.89,2.4-4.42,6.11-6.38,11.1-1.22,3.12-3.17,8.26-2.92,15.14.29,7.85,3.28,13.45,4.65,15.94,1.88,3.42,4.77,8.73,11.02,12.49,5.21,3.13,10.13,3.62,13.12,3.88,2.05.18,8.85.59,16.67-2.6,5.3-2.16,8.41-4.89,14.22-10.09,10.32-9.23,9.85-11.87,17.62-17.75,3.59-2.72,8.85-6.63,16.74-8.77,11.12-3.02,20.39-.67,23.91.27,9.38,2.5,15.53,7.16,17.53,8.77,6.25,5.02,9.58,10.35,11.69,13.81.81,1.33,4.13,6.89,6.53,15.04,1.37,4.63,2.88,11.61,2.76,20.29-.15,10.6.35,24.05,0,39.85"/></g><g id="Layer_88"><path class="cls-1" d="m9.78,96.15c7.27-1.7,12.21-4.46,15.28-6.55,6.97-4.73,7.64-8.26,17.03-15.72,4.94-3.93,7.88-6.22,12.66-7.92,7.04-2.51,13.18-2,16.59-1.68,5.34.5,10.73,1,15.72,4.8,3.35,2.55,5,5.48,8.3,11.35,1.88,3.34,3.93,6.99,5.24,12.22,1.11,4.42.55,5.42,1.96,11.35.86,3.62,1.49,6.24,2.84,8.95,1.25,2.51,4.1,7.07,10.7,10.94"/></g><g id="Layer_89"><line class="cls-1" x1="127.66" y1="7.96" x2="127.66" y2="123.9"/><line class="cls-1" x1="248.65" y1="9.45" x2="248.65" y2="125.39"/><line class="cls-1" x1="367.9" y1="10.78" x2="367.9" y2="126.71"/></g><g id="Layer_90"><path class="cls-1" d="m203.4,9.05c-.18,2.72-.17,6.91,1.09,11.79.93,3.61,2.34,9.06,6.77,13.32,2.42,2.33,3.19,1.84,12.01,6.33,6.53,3.32,9.85,5.04,12.88,7.64,5.45,4.69,7.93,9.51,8.51,10.7,1.6,3.23,2.22,5.89,2.73,8.12.74,3.21,2.01,9.03.67,16.33-1.2,6.56-3.9,11.03-4.5,12.01-1.04,1.68-4.36,6.7-10.7,10.7-6.93,4.37-13.51,5.01-16.15,5.24-.74.06-3.16.25-6.33,0-3.21-.25-9.12-.71-14.63-4.15-2.56-1.59-4.21-3.49-7.42-7.2-2.6-3.02-5.88-7.22-9.17-12.66"/></g><g id="Layer_91"><path class="cls-1" d="m251.69,123.9c4.35-.72,9.67-1.9,15.55-3.93,7.62-2.63,12.4-4.28,17.12-8.63,4.4-4.05,6.53-8.41,8.79-13,2.79-5.7,4.2-10.81,4.96-14.42V10.78"/></g><g id="Layer_92"><path class="cls-1" d="m298.11,44.48c1.81-3.74,5.32-9.62,11.72-14.65,5.12-4.03,9.9-5.78,11.36-6.28,6-2.07,10.94-2.08,13.87-2.05,3.85.03,8.13.06,13.12,2.13,4.04,1.67,6.61,3.87,9.42,6.28,3.84,3.29,6.7,6.69,8.78,9.61"/></g><g id="Layer_93"><path class="cls-1" d="m484.33,94.89c-1.99-.14-5.13-.11-8.64,1.1-4.1,1.42-6.62,3.74-9.56,6.44-2.43,2.23-5.2,4.77-7.54,9.01-2.58,4.67-3.43,9.2-3.68,12.45.9-5.04.48-9.02,0-11.53-.51-2.69-1.3-4.84-2.02-6.81-1.26-3.42-2.62-6.16-3.68-8.09-2.92-4.23-5.86-7.31-8.09-9.38-2.94-2.73-6.01-5.58-10.85-7.73-3.38-1.5-6.07-1.96-10.67-2.76-3.03-.53-6.29-.79-12.69-1.29-8.39-.66-9.26-.56-12.32-1.1-2.01-.36-6.3-1.12-10.12-2.76-2.85-1.22-9.59-4.71-15.08-14.35v-27.77c.59-2.25,1.69-5.45,3.86-8.83,5.2-8.08,12.81-11.39,15.63-12.45,9.66-3.6,18.09-1.32,24.46.4,5.03,1.36,10.36,2.87,15.27,7.63.96.94,4.92,4.92,7.17,11.59,1.72,5.1,1.69,9.54,1.47,12.14h-67.87"/></g></svg>